<svg xmlns="http://www.w3.org/2000/svg" width="179" height="33" viewBox="0 0 80.192 14.745" shape-rendering="geometricPrecision" image-rendering="optimizeQuality" fill-rule="evenodd" fill="#c4a77b" xmlns:v="https://vecta.io/nano"><path d="M6.03 7.34c.16-.022.104-.022.163.08l1.1-.24.77-.234.65-.37c.145-.054.115-.02.213-.122.126-.13.883-.74.928-.74l.134.05c.006-.092-.103-.08.093-.1.088-.01.156-.025.245-.022v.17c-.202.048-.192.023-.194.1l.2.014.006.473-.093.046c.097.1.065.06.087.362-.174.01-.103-.014-.3.128l-.115-.03-.34.025c-.127.017-.04.022-.107.068-.14-.055-.095-.037-.137.024-.188-.068-.1.008-.152-.076-.028.05-.026.042-.047.054l-.032-.153-.2.052.018.057-.315-.023c.135-.153.176-.005.28-.144.096-.127.135-.074.262-.146l-.07-.072c.1-.034.113-.028.158-.07.035-.03.013.008.032-.036-.27.104-.422.126-.585.305-.086.094-.035.063-.173.116-.283.107-.546.244-.863.32l-.974.215c-.226.045-.125.022-.23.08-.05.027-.707.095-.783.1l-.043-.072H5.3l.444-.153.275-.03zm2.15-2.298l-.045.055.1.092c-.026.064-.154.184-.224.093-.033-.043-.016-.127-.023-.182-.005-.04-.026-.083-.034-.136.137.004.083-.008.235.077zM4.9 7.582c.004.142.004.184.127.237.36.157.897.04 1.3-.013.165-.022 3.834-.024 4.04-.025l.002-2.326c-.168-.1-.444-.05-.56.05l-.117.122c-.266-.076-.76-.64-.987-.865-.185-.184-.23-.28-.564-.366-.233-.06-.545-.096-.76-.18-.1-.035-.08-.054-.174-.04-.218.033-.214.04-.42.287-.53.635-.817 1.37-1.154 2.12l-.14.328c-.092.155-.476.196-.674.254a1.11 1.11 0 0 0-.166.065c-.1.05-.245.02-.47.23-.16.15-.286.317-.424.52-.037.055-.593 1.1-.032.76.164-.097.14-.073.23-.243.194-.367.482-.844.955-.914zm8.268-2.362c0 .624.006.55.087 1.18l.398-.14c.01.2-.242.607-.273.783l.008.96.402-.268c-.042.104-.408.674-.475.84l-.3 1.022.935-.377c.222-.176.433-.527.556-.785l.16-.37-.013-.9c-.132-.001-.26.078-.343.13l-.28.186c.062-.194.48-.825.497-.928.064-.394.005-.4-.005-.787-.004-.148-.056-.307-.1-.452-.127.006-.23.114-.362.2.006-.224.023-.23.032-.382.02-.312-.04-.697-.176-.982l-.297-.544c-.03.016.001-.007-.037.026a.28.28 0 0 0-.03.032l-.06.078c-.036.054-.06.1-.08.178-.147.442-.268.765-.268 1.287zM7.05 13.304c-.115.001-.165.017-.247-.033a1.38 1.38 0 0 1-.438-.384c-.107-.146-.12-.182-.134-.406-.013-.206-.014-.316.083-.453l.214-.002.243.607c.202.5.136.418.36.5l-.083.182zm.676-.186c-.007-.145.026-.067.077-.156.022-.04.035-.134.043-.185.026-.154.062-.2.126-.33.106-.198.208-.4.443-.458l.085.412c-.01.125-.038.317-.096.402-.128.186-.356.315-.68.315zm-1.287.332l-.005.126c-.084.062-.156.08-.32.2-.26.207-.466.638-.654.957l.428-.018.194-.347c.07-.12.142-.22.226-.337.2-.293.26-.382.534-.6l.01.023.008.025.034.167.324.008.008.14c.3.02.222-.058.32-.095l.133-.007v-.138l.215.002c.057.06.147.2.2.246.156.092.155.07.277.195l.325.62.484-.001a2.75 2.75 0 0 0-.51-.66 1.75 1.75 0 0 0-.366-.227c-.13-.064-.02-.053-.267-.175l-.098-.06c.001-.16.375-.13.754-.5.148-.144.106-.132.107-.506 0-.143.01-.147-.042-.265L8.686 12c-.043-.103-.107-.024-.2-.113-.078-.082-.42-.158-.445-.158-.053.001-.14.093-.172.128-.052.056-.097.093-.115.185-.07.378-.016.4-.043.575l-.042.273-.496-.05c-.007-.008-.01-.018-.012-.02l-.014-.034-.263-1.045c-.217-.053-.534-.084-.726.037-.147.093-.277.33-.308.545-.015.108-.005.307-.005.424 0 .14.1.307.187.455.04.075.035.064.113.1l.282.14zM.55 4.778c.001.35.04.462.116.8l-.4-.18c-.052.1-.1.25-.116.355-.033.13-.017.32-.017.465 0 .242-.01.2.08.4.382.755.494.8 1.078 1.35.008-.178.037-.325.06-.5.035-.275.035-.2-.05-.453l-.28-.822c.054.017.092.06.145.1l.228.027c.158-1 .086-.534.086-1.444.001-.25.002-.264-.078-.464l-.3-.793a1.1 1.1 0 0 0-.377.482c-.052.12-.164.554-.163.7zM5.973 1.38l-.084.356.5.03c.05-.006.018-.001.046-.017.013-.007.035-.026.064-.042.153-.08.17-.104.293-.226l.2-.206c.004-.123-.08-.142-.17-.17-.262-.082-.556.098-.788.197C6.15.87 6.937.467 6.7.16 6.6.018 6.406.01 6.225 0 6.007-.01 5.9.04 5.7.155c-.47.306-.826 1.003-.786 1.55.008.1.022.087.252-.013l.796-.312zM2.47 11.2c.028-.612-.408-.97-.835-1.292-.308-.23-.953-.6-1.348-.783-.104.287-.04.686.08.9.305.57 1.054.9 1.653 1.056.126.035.3.097.45.1z"/><path d="M7.877 2.44c.033.138.317.3.47.367l.618.207c.15.025.55-.034.7-.054.178-.025.288-.02.446-.077.284-.104.544-.144.833-.2-.01-.124-.083-.213-.185-.27a1.65 1.65 0 0 0-.32-.164c-.13-.04-.7-.196-.825-.197-.53-.001-.465.018-1.04.163-.277.07-.458.115-.687.226zm-3.934.248l.425.08c.197.043.5.155.576.164.393.043.557.083.96.083.155 0 .484-.147.622-.204l.466-.372c-.347-.16-.776-.246-1.177-.344-.2-.045-.26-.044-.474-.044-.27.001-.588.088-.845.177-.123.042-.23.1-.338.162-.088.05-.22.122-.214.297zm8.233 8.472c1.183-.213 1.728-.335 2.146-1.6l.128-.403c-.192-.03-1.25.635-1.386.73-.302.208-.633.48-.758.84-.037.104-.118.32-.13.424zm-8.528 1.183c-.2-.4-.598-.694-.98-.8l-1.457-.35c-.01.602.377 1.002.788 1.197.355.17.432.168.846.15a10.57 10.57 0 0 0 .803-.188z"/><path d="M11.015 12.237c.022.02-.018-.002.04.025.012.005.035.013.045.016l.7.244c.082.02.422.012.528.01.13-.002.28-.103.38-.158a1.66 1.66 0 0 0 .562-.504c.07-.097.142-.223.2-.33.117-.218.102-.104.06-.382-.07.002-.278.06-.363.08-.667.163-1.04.214-1.654.595-.123.077-.43.302-.5.403zm-9.46-5.07c0 .185.02.244.027.38l.008.34c.04.007.16-.01.205-.022.093-.025.102-.18.22-.28.055-.047.12-.05.17-.088l.932-1.352c.045-.062.08-.086.074-.183l-.05-.467c-.174.037-.833.446-1.007.6-.157.15-.253.253-.365.456-.066.118-.217.447-.217.603zm10.834-4.126c0 .364.014.906.102 1.22.117.42.192.416.506.668l.235-.724c.055-.137.042-.782.013-.943-.044-.24-.13-.525-.254-.716-.187-.288-.24-.276-.545-.435l-.006.48c-.02.15-.052.3-.052.45zm.062 6.74c.208-.106.308-.383.38-.653.096-.358.18-.42.017-.852l-.213-.565c-.036-.07-.1-.1-.14-.134-.293-.258-.318-.23-.7-.343-.047.206-.106.533-.03.744l.676 1.802z"/><path d="M5.17 3.178l-.282-.154c-.112-.043-.27-.03-.388-.07s-.282-.025-.423-.026c-.164-.001-.25.036-.382.082-.526.182-.665.448-.94.868-.108.165-.1.132.13.16.614.073 1.32-.103 1.83-.405.144-.085.405-.303.455-.455zm-3.4 5.725c.001.14.246.7.33.87.135-.054.395-.775.45-.906l.376-.998v-.304l-.08-.35c-.226-.032-.6.274-.676.36-.052.07-.088.14-.138.212-.302.45-.263.635-.26 1.118z"/><path d="M.004 7.228c-.012.165.042.328.02.465-.033.2-.037.247.025.43.107.313.245.57.473.773.205.184.187.174.43.33l.637.37c.075-.452.092-.507-.095-.8a4.49 4.49 0 0 0-.432-.573l-.345-.386C.66 7.795.65 7.747.6 7.707L.123 7.18c-.06.008-.067.015-.12.05zM1.83 5.794c.158-.007.584-.167.72-.23.403-.2.858-.48 1.144-.8l.442-.526c-.1-.025-.33-.025-.452-.036-.324-.03-.92.165-1.166.314-.403.244-.574.708-.687 1.27z"/><path d="M9.533 3.152c.001.062.013.13.022.185.015.08.036.08.092.118.252.182.588.307.885.393.423.123 1 .192 1.44.257-.02-.104-.132-.292-.187-.382-.08-.13-.155-.24-.257-.337s-.174-.183-.3-.27l-.413-.187h-.578c-.18 0-.6.14-.695.222zM1.727 4.838c.212-.04.535-.688.56-.806l-.001-.974c0-.152-.058-.3-.058-.487l-.1-.442c-.116.056-.373.35-.446.483-.06.108-.25.535-.27.676-.043.297.06 1.026.16 1.24l.154.312zM13.034 7.95c.023-.205.1-.095.075-.406-.017-.152-.015-.327-.05-.467-.12-.5-.4-.963-.83-1.2l-.7-.336c-.038.072-.075.343-.042.412.05.1.127.2.2.313l.92 1.334a1.91 1.91 0 0 0 .43.36zM8.97 12.9c.265.015.338-.036.625-.245a1.45 1.45 0 0 0 .356-.36c.164-.227.204-.253.213-.5.008-.233.1-.684.085-.76l-.102-.254c-.1.026-.433.22-.526.288-.4.282-.497.588-.594 1.06-.03.144-.014.23-.028.382-.013.128-.042.257-.028.388z"/><path d="M3.2 11.242l.148-1.377c.083-.672.037-.618-.246-1.22-.182-.01-.143-.047-.273.245l-.157.36c-.1.212-.252.558-.28.77-.03.232-.02.24.07.407a1.68 1.68 0 0 0 .332.444l.125.134.283.236zm8.97-7.687v-.437c.001-.202.07-.274.085-.38s.004-.326.004-.442c.001-.236-.357-.784-.472-.9l-.528-.37c-.035.3-.001 1.364.093 1.63.044.126.256.424.334.518s.343.365.484.374zm.633 2.29c-.003-.376-.225-1.028-.558-1.273l-.075-.06-1.603-.355c.025.184.268.47.374.594.058.07.18.168.256.232.25.208.64.4.932.545l.675.318zM5.758 13c.002-.48.04-.332-.097-.74-.104-.3-.3-.863-.597-1.076l-.484-.348c-.055.098-.105.627-.086.76l.055.395c.03.223.012.17.12.318.202.278.6.6 1.1.7zM7.805.27c.03.033.354.275.5.4l.632.585c.132.098.66.527.767.467l.14-.093c-.01-.087-.095-.272-.13-.36L9.56.938A2.27 2.27 0 0 0 9.167.34C9.014.173 8.773 0 8.522.001c-.167.001-.306-.015-.433.05-.073.038-.154.105-.212.154L7.805.27zm2.5 12c.136-.018.568-.316.65-.407a1.81 1.81 0 0 0 .262-.376c.114-.224-.093-1.26-.126-1.538-.01-.094-.003-.095-.102-.08-.164.025-.204.012-.33.314-.08.197-.135.43-.2.657l-.1.333c-.03.125-.034.246-.057.368-.082.426-.106.342-.01.73zm-1.672 1.1c.027.274.25.5.426.63l.854.22a2.93 2.93 0 0 0 .652-.073l.274-.074c.1-.032.082-.04.12-.242-.08-.05-.34-.113-.7-.33l-.32-.2c-.064-.023-.444-.073-.546-.073-.218-.001-.584.078-.762.142zm2.697-3.88c-.001.402-.007.303.04.703.058.497.08.487.216.984.046-.02.433-.414.486-.47.195-.2.166-.1.183-.3.056-.576-.304-1.205-.614-1.667l-.055-.07c-.14.115-.256.7-.256.8z"/><path d="M3.684 13.884c.022.05.185.2.224.227.335.227.765.196 1.12.064.5-.2.68-.44 1.03-.812a.64.64 0 0 0-.307-.096c-.063-.003-.136.004-.198-.001-.08-.007-.075-.04-.14-.05-.058-.01-.33-.007-.377.01l-.798.403-.397.197c-.065.02-.097.024-.156.056zm.666-1.577l.125-.128-.132-.65-.126-.67-.536-1.022c-.043.065-.203.94-.24 1.13a1.28 1.28 0 0 0 .337.987 1.2 1.2 0 0 0 .266.19c.088.046.224.14.304.162zM2.47 2.25c0 .194-.001.676.04.823l.167.425c.214-.3.433-.605.577-1.004l.22-1.392c-.308.02-.347.106-.543.262-.072.058-.073.06-.13.143-.074.103-.155.192-.2.322-.04.1-.12.3-.12.42zm7.456 10.928c.25.092.94.348 1.228.324.26-.023.394-.086.598-.18.3-.136.25-.144.463-.326-.062-.107-.195-.117-.338-.156l-.405-.1c-.495-.14-.372-.1-.925-.1-.184.001-.638.237-.62.548z"/><path d="M2.575 12.866l-.044.24c.57.398 1.114.548 1.768.177l.493-.314c-.147-.134-.512-.285-.706-.33-.246-.058-.708.05-.944.1l-.567.13zM3.697 2.462c.062-.014.1-.036.158-.054.173-.054.166-.06.343-.295.298-.393.42-.635.605-1.1L5.02.378c-.12.017-.485.192-.613.254-.467.227-.565.575-.677 1.062a1.55 1.55 0 0 0-.033.768zm7.37-.105c.001-.4.01-.358-.112-.73a2.72 2.72 0 0 0-.253-.584L9.636.436c.007.074.185.518.228.625.1.28.224.646.432.862a1.71 1.71 0 0 0 .473.379c.044.027.1.058.136.077.026.01.053.017.08.015.052-.003.062-.004.083-.038zm-2.34-.62c.004-.167-.012-.242-.093-.346-.055-.07-.142-.144-.23-.196l-.765-.102c.014.207.226.363.385.467.34.225.137.18.704.177z"/><path d="M19.878 11.826c.003.045.03.083.08.116a.64.64 0 0 0 .171.071.54.54 0 0 0 .141.025.51.51 0 0 0 .14-.025.64.64 0 0 0 .171-.071c.05-.033.078-.07.08-.116l-.287-9.584h1.268a.31.31 0 0 0 .201-.093c.063-.058.096-.123.1-.194-.003-.108-.033-.196-.093-.26a.56.56 0 0 0-.226-.146c-.093-.033-.2-.055-.292-.068l-.28-.022h-1.268l-.908-.015c-.216.01-.373.043-.468.1s-.158.118-.18.204a1.28 1.28 0 0 0-.043.325c.013.126.13.198.355.224s.568.02 1.034-.013l.302 9.554zm5.992-3.08l.005.297.015.538.05 1.857.005.297.02.88c.015.246.06.435.136.568s.2.2.373.196c.12-.005.198-.226.23-.664s.048-1.094.043-1.967l-.013-3.26.07-4.553.035-.802.017-.465.007-.347a.81.81 0 0 0-.221-.209c-.1-.058-.184-.1-.277-.093a.46.46 0 0 0-.274.08c-.074.053-.116.138-.118.25v.075l.015 1.255-.007 1.394-.03 1.42-.048 1.34-.065 1.154L25 7.96l-.858-.003c-.068.005-.128.003-.186-.003s-.116-.04-.176-.103l-.007-.267-.005-.415-.003-.415v-.277l.02-1.235.096-2.637.02-1.185c-.065-.093-.134-.168-.206-.226a.49.49 0 0 0-.262-.1 1.09 1.09 0 0 0-.229.015c-.068.013-.134.048-.194.106L22.887 9l-.013 1.693-.015 1.484-.005.634-.003.417c.008.04.043.08.1.118s.13.063.216.083a.63.63 0 0 0 .249.003.37.37 0 0 0 .209-.126c.055-.068.083-.172.085-.305V8.747h2.158zm2.672 4.286c.003.04.065.078.186.108a3.34 3.34 0 0 0 .483.073l.66.035.717-.01.654-.065a2.03 2.03 0 0 0 .476-.12c.12-.05.176-.113.176-.186-.013-.17-.065-.287-.158-.347s-.22-.1-.377-.088-.347.02-.558.045-.448.04-.702.043h-.16c-.07 0-.15 0-.232-.003l-.232-.005-.16-.007.045-3.94 1.5-.226a.8.8 0 0 0 .38-.161.55.55 0 0 0 .196-.267c.027-.096.013-.18-.053-.246s-.18-.108-.357-.1h-.075l-1.63.242-.075-5h1.8c.083 0 .176-.015.277-.045s.184-.08.257-.146a.33.33 0 0 0 .116-.246c0-.015 0-.028-.003-.038s-.005-.022-.013-.037c-.007-.028-.037-.065-.093-.1s-.1-.1-.17-.13-.1-.058-.144-.06h-2.385a.51.51 0 0 0-.256.075.61.61 0 0 0-.196.196.51.51 0 0 0-.075.256l.166 10.535zm4.694-11.26v.317l.302 3.592.166 2.606.1 2.425.126 2.335a.39.39 0 0 0 .166.153c.07.033.138.053.206.06a1.03 1.03 0 0 0 .156.013c.594-.005 1.112-.1 1.557-.322a3.14 3.14 0 0 0 1.112-.868c.297-.368.52-.795.67-1.276s.224-1 .224-1.534c.003-.672-.078-1.27-.24-1.796a4.03 4.03 0 0 0-.775-1.419c-.352-.42-.815-.807-1.386-1.163a3.29 3.29 0 0 0 .602-.956c.14-.347.2-.72.214-1.112-.003-.3-.058-.576-.17-.8a1.51 1.51 0 0 0-.443-.548 1.69 1.69 0 0 0-.62-.294c-.228-.054-.463-.073-.702-.047a2.35 2.35 0 0 0-.687.196c-.22.096-.413.25-.578.437zm1.494 10.58l-.242-3.4-.106-3.4c.395.003.742.078 1.044.226a2.4 2.4 0 0 1 .777.598 3.26 3.26 0 0 1 .528.858 4.82 4.82 0 0 1 .302 1c.066.35.096.692.096 1.03a5.79 5.79 0 0 1-.068.878c-.045.294-.118.574-.222.838s-.234.5-.397.707-.367.37-.606.488-.516.18-.835.184c-.045 0-.1 0-.136-.003a.85.85 0 0 1-.136-.013zm-.62-10.25c.272-.126.518-.176.747-.156s.4.113.548.272.2.382.214.67a2.06 2.06 0 0 1-.093.616 1.92 1.92 0 0 1-.26.55c-.114.165-.25.294-.405.4a1 1 0 0 1-.526.151l-.226-2.5zm7.97 8.12l.377 2.868c.013.05.045.08.1.093a.7.7 0 0 0 .156.013h.045c.093 0 .17-.013.222-.043s.098-.07.13-.13.068-.138.1-.234c.013-.017.015-.022.015-.03l-.1-.98-.425-3.554-.528-3.527-.737-3.484-.12-.317a.44.44 0 0 0-.206-.17.67.67 0 0 0-.26-.055c-.123.003-.224.043-.297.12s-.128.168-.166.277a2.52 2.52 0 0 0-.096.312c0-.002 0 .005-.003.023l-.025.154-.06.4-.116.797-1.38 9.6a.72.72 0 0 0 .043.21.79.79 0 0 0 .116.226c.05.068.108.103.174.108.108-.003.2-.038.25-.106s.1-.148.128-.246a1.44 1.44 0 0 0 .05-.292l.023-.23.256-1.706.1-.1h2.233zm-1.132-7.94l1.012 7.05-1.887-.045.875-7.003zm3.82 9.54c.003.045.03.083.08.116a.64.64 0 0 0 .171.071.54.54 0 0 0 .141.025.54.54 0 0 0 .141-.025.64.64 0 0 0 .171-.071c.05-.033.078-.07.08-.116l-.287-9.584h1.268a.31.31 0 0 0 .201-.093c.063-.058.096-.123.1-.194-.003-.108-.033-.196-.093-.26a.56.56 0 0 0-.226-.146c-.093-.033-.2-.055-.292-.068l-.28-.022h-1.268l-.908-.015c-.216.01-.373.043-.468.1s-.158.118-.18.204a1.28 1.28 0 0 0-.043.325c.013.126.13.198.355.224s.57.02 1.034-.013l.302 9.554zm3.1 1.404c.003.088.033.156.088.2s.128.073.2.078a.52.52 0 0 0 .254-.053.55.55 0 0 0 .218-.186.61.61 0 0 0 .103-.327l.453-10.324c0-.013.003-.038.005-.073l.005-.116.005-.083c.002-.146-.003-.264-.015-.36s-.053-.16-.116-.206-.164-.068-.307-.068a1.16 1.16 0 0 0-.246.015c-.06.013-.108.04-.146.085s-.073.118-.106.216l-.407 11.2zm3.275.045c.01.148.05.254.118.317a.31.31 0 0 0 .246.078c.093-.01.184-.047.27-.113s.15-.15.196-.252l-.02-1.2-.047-1.217-.06-1.127-.047-.926-.02-.6V8.1l.734 1.243.677 1.318.644 1.308.63 1.217c.058.093.113.15.17.17s.128.03.224.025a.43.43 0 0 0 .307-.116c.073-.073.113-.164.126-.267a.49.49 0 0 0-.055-.297L52.42 7.48l2.445-5.645c.05-.166.068-.297.055-.398s-.048-.178-.1-.23a.39.39 0 0 0-.178-.103.65.65 0 0 0-.184-.025c-.134.003-.242.035-.32.1a.65.65 0 0 0-.178.254 1.86 1.86 0 0 0-.1.332l-.08.34a14.88 14.88 0 0 1-.483 1.374L52.6 5.05l-.845 1.736-.15-5.04c-.007-.196-.045-.34-.118-.435s-.184-.138-.335-.138c-.123.003-.224.043-.302.123a.44.44 0 0 0-.12.315l.422 11.667zm5.66-.6c0 .2.053.375.153.5s.246.17.435.174c.098.003.2-.007.284-.025a.47.47 0 0 0 .226-.106c.06-.055.1-.138.093-.246 0-.144-.03-.27-.085-.38a.64.64 0 0 0-.236-.26c-.1-.062-.222-.096-.357-.098-.063.002-.134.027-.214.073a.76.76 0 0 0-.206.176.32.32 0 0 0-.093.204zM63.03 1.487c-.393.002-.745.08-1.057.23a2.8 2.8 0 0 0-.835.609 4.31 4.31 0 0 0-.629.858 6.24 6.24 0 0 0-.45.986 8.75 8.75 0 0 0-.289.984c-.1.422-.174.87-.22 1.34a10.5 10.5 0 0 0-.037 1.431 9.05 9.05 0 0 0 .168 1.416 6.49 6.49 0 0 0 .408 1.293 4.15 4.15 0 0 0 .674 1.064c.272.31.596.55.97.727s.807.277 1.296.3c.123 0 .244-.012.362-.037a.86.86 0 0 0 .302-.118.35.35 0 0 0 .156-.22c.02-.092-.008-.204-.08-.335a.31.31 0 0 0-.218-.146 1.4 1.4 0 0 0-.35-.013l-.43.023a1.93 1.93 0 0 1-.45-.045 1.05 1.05 0 0 1-.423-.211c-.33-.274-.6-.57-.787-.883a3.61 3.61 0 0 1-.435-1.01c-.095-.36-.158-.75-.186-1.167l-.04-1.348c0-.287.017-.6.055-.943l.166-1.044a7.57 7.57 0 0 1 .287-1.022 4.87 4.87 0 0 1 .407-.88 2.17 2.17 0 0 1 .534-.619 1.09 1.09 0 0 1 .664-.231h.1l.26.007c.116.005.236-.003.365-.02s.234-.058.322-.12.136-.158.14-.3a.46.46 0 0 0-.113-.3.73.73 0 0 0-.272-.192.84.84 0 0 0-.325-.068zm1.5 5.267l.015.906.07 1.12.17 1.205a8.02 8.02 0 0 0 .315 1.162c.13.37.3.697.5.986a2.34 2.34 0 0 0 .724.69c.284.17.616.254.996.256a1.55 1.55 0 0 0 .795-.209 1.93 1.93 0 0 0 .59-.536 3.43 3.43 0 0 0 .413-.735c.108-.27.2-.536.254-.803s.1-.513.12-.737l.06-.938.045-1.233-.01-1.396-.106-1.442a10.34 10.34 0 0 0-.24-1.36 5.7 5.7 0 0 0-.41-1.159c-.172-.342-.377-.62-.624-.83s-.538-.34-.875-.38c-.443.005-.823.093-1.135.27a2.28 2.28 0 0 0-.78.715c-.206.3-.37.636-.5 1.014a7.2 7.2 0 0 0-.27 1.175l-.1 1.192-.023 1.07zm.876-1.388a4.03 4.03 0 0 1 .04-.506 7.56 7.56 0 0 1 .126-.68 7.48 7.48 0 0 1 .216-.737c.088-.244.2-.468.312-.672a1.74 1.74 0 0 1 .408-.49c.153-.123.324-.188.513-.2.204.003.387.083.548.236s.305.365.425.63a5.7 5.7 0 0 1 .317.89l.224 1.024.14 1.03.073.914.023.664v.06l-.005.564-.033.8-.085.918a8.51 8.51 0 0 1-.161.918 4.4 4.4 0 0 1-.267.802 1.65 1.65 0 0 1-.395.566c-.156.14-.337.214-.548.216s-.417-.05-.608-.16-.363-.292-.518-.546-.292-.598-.405-1.03-.198-.966-.262-1.607-.093-1.4-.093-2.284l.003-.642.013-.687zm5.116 7.306c0 .2.053.375.154.5s.246.17.435.174c.098.003.2-.007.284-.025a.47.47 0 0 0 .226-.106c.06-.055.1-.138.093-.246 0-.144-.03-.27-.085-.38s-.136-.198-.237-.26a.66.66 0 0 0-.357-.098c-.063.002-.134.027-.214.073a.76.76 0 0 0-.206.176c-.058.07-.1.136-.093.204zm2.702.558c.002.088.033.156.088.2s.128.073.2.078.168-.013.254-.053a.54.54 0 0 0 .22-.186c.06-.086.096-.194.103-.327l.453-10.324c0-.013.003-.038.005-.073l.005-.116.005-.083a2.51 2.51 0 0 0-.015-.36c-.012-.096-.053-.16-.116-.206s-.164-.068-.307-.068c-.103-.003-.186.003-.246.015a.25.25 0 0 0-.146.085c-.037.045-.073.118-.106.216l-.407 11.2zm2.852-.212c0 .184.035.322.1.4a.41.41 0 0 0 .277.166c.12.02.262.02.423-.003.496-.063.926-.216 1.288-.46a3.19 3.19 0 0 0 .91-.941 5.48 5.48 0 0 0 .6-1.3c.152-.48.267-1.012.345-1.567l.148-1.713V6.317a11.41 11.41 0 0 0-.138-1.333 8.38 8.38 0 0 0-.322-1.301 5.8 5.8 0 0 0-.549-1.187c-.224-.37-.496-.702-.817-.994-.154-.136-.32-.24-.506-.322s-.377-.136-.578-.17a3.49 3.49 0 0 0-.606-.05h-.136c-.106.047-.192.113-.254.198a.89.89 0 0 0-.14.287 1.21 1.21 0 0 0-.043.33v.06l.005.684.007 3.62-.007 3.625-.005.7v2.566zm.966-11.094h.106c.3.005.558.1.78.262s.413.4.57.692.287.614.387.976a9.35 9.35 0 0 1 .244 1.122l.13 1.122.053.984.01.7c0 .28-.015.586-.047.924a9.95 9.95 0 0 1-.154 1.03 7.46 7.46 0 0 1-.289 1.029 4.66 4.66 0 0 1-.445.914c-.176.277-.383.506-.62.7a1.85 1.85 0 0 1-.828.349l-.012-1v-1.1L76.94 9.5l.005-1.054.002-.906.005-.528.01-.8.035-1.983.02-.966.02-.805.015-.534z" fill-rule="nonzero"/></svg>